name Visual3d_SIMM_grf.mot
datacolumns 19
datarows 48
range 2.270000 2.740000
endheader
time	ground_force_vx	ground_force_vy	ground_force_vz	ground_force_px	ground_force_py	ground_force_pz	l_ground_force_vx	l_ground_force_vy	l_ground_force_vz	l_ground_force_px	l_ground_force_py	l_ground_force_pz	ground_torque_x	ground_torque_y	ground_torque_z	l_ground_torque_x	l_ground_torque_y	l_ground_torque_z
2.270000	-13.719861	56.663300	-0.993067	0.003430	0.009875	0.085064	26.426521	289.767731	48.376102	-0.106072	-0.002052	-0.331974	0.000824	0.078414	-0.001250	-0.000206	0.492005	-0.001171
2.280000	-12.574310	43.727524	1.354754	0.005869	0.008073	0.083477	29.206196	299.592224	47.308872	-0.106230	-0.002920	-0.332804	-0.000061	-0.005847	0.000093	-0.000267	0.638654	-0.001520
2.290000	-11.449612	32.684891	3.016562	0.009773	0.006518	0.082724	31.204487	303.799561	44.553623	-0.106329	-0.003566	-0.333672	-0.000576	-0.054830	0.000874	-0.000317	0.757024	-0.001801
2.300000	-10.318830	23.628359	3.917933	0.015764	0.005303	0.083026	32.298038	302.455963	40.468410	-0.106340	-0.003972	-0.334553	-0.000772	-0.073520	0.001172	-0.000353	0.842003	-0.002004
2.310000	0.000000	0.000000	0.000000	0.000000	0.000000	0.000000	32.526356	296.134674	35.465023	-0.106243	-0.004160	-0.335433	0.000000	0.000000	0.000000	-0.000374	0.893486	-0.002126
2.320000	0.000000	0.000000	0.000000	0.000000	0.000000	0.000000	32.086994	285.804840	29.983469	-0.106017	-0.004178	-0.336328	0.000000	0.000000	0.000000	-0.000384	0.917532	-0.002183
2.330000	0.000000	0.000000	0.000000	0.000000	0.000000	0.000000	31.239086	272.709106	24.436277	-0.105644	-0.004079	-0.337278	0.000000	0.000000	0.000000	-0.000386	0.922468	-0.002195
2.340000	0.000000	0.000000	0.000000	0.000000	0.000000	0.000000	30.220448	258.234283	19.160738	-0.105114	-0.003915	-0.338329	0.000000	0.000000	0.000000	-0.000384	0.916107	-0.002180
2.350000	0.000000	0.000000	0.000000	0.000000	0.000000	0.000000	29.211477	243.744095	14.409604	-0.104440	-0.003720	-0.339525	0.000000	0.000000	0.000000	-0.000379	0.904948	-0.002153
2.360000	0.000000	0.000000	0.000000	0.000000	0.000000	0.000000	28.332327	230.396484	10.362587	-0.103671	-0.003518	-0.340898	0.000000	0.000000	0.000000	-0.000374	0.893081	-0.002125
2.370000	0.000000	0.000000	0.000000	0.000000	0.000000	0.000000	27.650768	219.016556	7.133307	-0.102883	-0.003321	-0.342474	0.000000	0.000000	0.000000	-0.000370	0.883229	-0.002102
2.380000	0.000000	0.000000	0.000000	0.000000	0.000000	0.000000	27.195305	210.079300	4.765921	-0.102137	-0.003133	-0.344252	0.000000	0.000000	0.000000	-0.000368	0.877816	-0.002089
2.390000	0.000000	0.000000	0.000000	0.000000	0.000000	0.000000	26.973368	203.777939	3.235691	-0.101464	-0.002962	-0.346189	0.000000	0.000000	0.000000	-0.000368	0.879369	-0.002092
2.400000	0.000000	0.000000	0.000000	0.000000	0.000000	0.000000	26.978056	200.103699	2.450615	-0.100872	-0.002817	-0.348204	0.000000	0.000000	0.000000	-0.000373	0.890524	-0.002119
2.410000	0.000000	0.000000	0.000000	0.000000	0.000000	0.000000	27.191877	198.888626	2.256565	-0.100353	-0.002710	-0.350214	0.000000	0.000000	0.000000	-0.000383	0.915462	-0.002178
2.420000	0.000000	0.000000	0.000000	0.000000	0.000000	0.000000	27.584944	199.851334	2.469541	-0.099906	-0.002646	-0.352171	0.000000	0.000000	0.000000	-0.000401	0.958262	-0.002280
2.430000	0.000000	0.000000	0.000000	0.000000	0.000000	0.000000	28.110727	202.652344	2.913847	-0.099539	-0.002621	-0.354040	0.000000	0.000000	0.000000	-0.000427	1.018764	-0.002424
2.440000	0.000000	0.000000	0.000000	0.000000	0.000000	0.000000	28.704523	206.971878	3.465105	-0.099234	-0.002621	-0.355753	0.000000	0.000000	0.000000	-0.000456	1.088306	-0.002590
2.450000	0.000000	0.000000	0.000000	0.000000	0.000000	0.000000	29.306396	212.441818	4.038356	-0.098958	-0.002626	-0.357276	0.000000	0.000000	0.000000	-0.000484	1.156580	-0.002752
2.460000	0.000000	0.000000	0.000000	0.000000	0.000000	0.000000	29.866800	218.624588	4.569892	-0.098683	-0.002619	-0.358623	0.000000	0.000000	0.000000	-0.000509	1.214445	-0.002890
2.470000	0.000000	0.000000	0.000000	0.000000	0.000000	0.000000	30.345139	225.049240	5.008848	-0.098385	-0.002585	-0.359828	0.000000	0.000000	0.000000	-0.000525	1.253016	-0.002982
2.480000	0.000000	0.000000	0.000000	0.000000	0.000000	0.000000	30.731693	231.263428	5.315759	-0.098046	-0.002521	-0.360934	0.000000	0.000000	0.000000	-0.000530	1.265891	-0.003012
2.490000	0.000000	0.000000	0.000000	0.000000	0.000000	0.000000	31.064548	236.898071	5.481942	-0.097655	-0.002440	-0.361993	0.000000	0.000000	0.000000	-0.000525	1.252994	-0.002981
2.500000	0.000000	0.000000	0.000000	0.000000	0.000000	0.000000	31.383108	241.684433	5.528896	-0.097202	-0.002353	-0.363048	0.000000	0.000000	0.000000	-0.000510	1.217315	-0.002897
2.510000	0.000000	0.000000	0.000000	0.000000	0.000000	0.000000	31.700783	245.433960	5.472335	-0.096681	-0.002270	-0.364122	0.000000	0.000000	0.000000	-0.000486	1.160012	-0.002760
2.520000	0.000000	0.000000	0.000000	0.000000	0.000000	0.000000	32.010181	248.033493	5.309604	-0.096089	-0.002193	-0.365221	0.000000	0.000000	0.000000	-0.000453	1.080851	-0.002572
2.530000	0.000000	0.000000	0.000000	0.000000	0.000000	0.000000	32.293682	249.454605	5.022440	-0.095440	-0.002128	-0.366335	0.000000	0.000000	0.000000	-0.000410	0.979124	-0.002330
2.540000	0.000000	0.000000	0.000000	0.000000	0.000000	0.000000	32.534744	249.736542	4.584805	-0.094765	-0.002081	-0.367445	0.000000	0.000000	0.000000	-0.000358	0.854621	-0.002034
2.550000	0.000000	0.000000	0.000000	0.000000	0.000000	0.000000	32.728256	248.952469	3.972989	-0.094099	-0.002051	-0.368519	0.000000	0.000000	0.000000	-0.000297	0.709424	-0.001688
2.560000	0.000000	0.000000	0.000000	0.000000	0.000000	0.000000	32.880573	247.179779	3.174321	-0.093468	-0.002017	-0.369522	0.000000	0.000000	0.000000	-0.000230	0.548183	-0.001304
2.570000	0.000000	0.000000	0.000000	0.000000	0.000000	0.000000	32.992458	244.491653	2.193579	-0.092878	-0.001953	-0.370422	0.000000	0.000000	0.000000	-0.000157	0.375728	-0.000894
2.580000	0.000000	0.000000	0.000000	0.000000	0.000000	0.000000	33.052784	240.934967	1.047660	-0.092308	-0.001851	-0.371211	0.000000	0.000000	0.000000	-0.000082	0.196011	-0.000466
2.590000	0.000000	0.000000	0.000000	0.000000	0.000000	0.000000	33.048119	236.527100	-0.239800	-0.091722	-0.001716	-0.371887	0.000000	0.000000	0.000000	-0.000005	0.012319	-0.000029
2.600000	0.000000	0.000000	0.000000	0.000000	0.000000	0.000000	32.965229	231.278748	-1.626403	-0.091067	-0.001563	-0.372436	0.000000	0.000000	0.000000	0.000072	-0.172408	0.000410
2.610000	0.000000	0.000000	0.000000	0.000000	0.000000	0.000000	32.796822	225.214249	-3.047309	-0.090288	-0.001401	-0.372860	0.000000	0.000000	0.000000	0.000149	-0.354780	0.000844
2.620000	0.000000	0.000000	0.000000	0.000000	0.000000	0.000000	32.546852	218.384811	-4.423424	-0.089348	-0.001242	-0.373198	0.000000	0.000000	0.000000	0.000222	-0.530478	0.001262
2.630000	0.000000	0.000000	0.000000	0.000000	0.000000	0.000000	32.231606	210.873795	-5.672217	-0.088247	-0.001104	-0.373524	0.000000	0.000000	0.000000	0.000291	-0.694090	0.001652
2.640000	0.000000	0.000000	0.000000	0.000000	0.000000	0.000000	31.871792	202.793564	-6.715093	-0.087013	-0.001006	-0.373932	0.000000	0.000000	0.000000	0.000352	-0.839903	0.001999
2.650000	0.000000	0.000000	0.000000	0.000000	0.000000	0.000000	31.476675	194.271683	-7.481202	-0.085685	-0.000961	-0.374513	0.000000	0.000000	0.000000	0.000403	-0.963424	0.002292
2.660000	0.000000	0.000000	0.000000	0.000000	0.000000	0.000000	31.018421	185.429291	-7.904597	-0.084300	-0.000979	-0.375342	0.000000	0.000000	0.000000	0.000445	-1.063863	0.002531
2.670000	0.000000	0.000000	0.000000	0.000000	0.000000	0.000000	30.422150	176.354874	-7.924509	-0.082896	-0.001060	-0.376461	0.000000	0.000000	0.000000	0.000479	-1.144198	0.002723
2.680000	0.000000	0.000000	0.000000	0.000000	0.000000	0.000000	29.577127	167.073090	-7.496038	-0.081516	-0.001191	-0.377864	0.000000	0.000000	0.000000	0.000507	-1.211205	0.002882
2.690000	0.000000	0.000000	0.000000	0.000000	0.000000	0.000000	28.350124	157.522980	-6.589867	-0.080212	-0.001345	-0.379498	0.000000	0.000000	0.000000	0.000534	-1.274865	0.003034
2.700000	0.000000	0.000000	0.000000	0.000000	0.000000	0.000000	26.640247	147.534622	-5.220582	-0.079077	-0.001489	-0.381261	0.000000	0.000000	0.000000	0.000563	-1.345606	0.003202
2.710000	0.000000	0.000000	0.000000	0.000000	0.000000	0.000000	24.408453	136.857727	-3.453722	-0.078263	-0.001597	-0.383031	0.000000	0.000000	0.000000	0.000600	-1.432531	0.003409
2.720000	0.000000	0.000000	0.000000	0.000000	0.000000	0.000000	21.665506	125.272491	-1.380443	-0.077986	-0.001651	-0.384694	0.000000	0.000000	0.000000	0.000646	-1.542945	0.003671
2.730000	0.000000	0.000000	0.000000	0.000000	0.000000	0.000000	18.464354	112.715332	0.913129	-0.078525	-0.001637	-0.386185	0.000000	0.000000	0.000000	0.000704	-1.681246	0.004001
2.740000	0.000000	0.000000	0.000000	0.000000	0.000000	0.000000	14.897524	99.378197	3.357124	-0.080241	-0.001538	-0.387458	0.000000	0.000000	0.000000	0.000774	-1.849250	0.004400
